<svg xmlns="http://www.w3.org/2000/svg" width="90" height="90" viewBox="0 0 90 90">
  <g id="Group_25" data-name="Group 25" transform="translate(-825 -986.2)">
    <circle id="Ellipse_7" data-name="Ellipse 7" cx="45" cy="45" r="45" transform="translate(825 986.2)" fill="#fed136"/>
    <path id="Path_33" data-name="Path 33" d="M870.172,1040.749a10,10,0,1,1,10-10A10.011,10.011,0,0,1,870.172,1040.749Zm0-15a5,5,0,1,0,5,5A5.006,5.006,0,0,0,870.172,1025.749Zm.2,35a7.508,7.508,0,0,1-7.5-7.5,1.823,1.823,0,0,0-3-1.389,7.565,7.565,0,0,1-5.433,2.329h0a7.437,7.437,0,0,1-5.3-2.195,7.512,7.512,0,0,1-.01-10.608,1.693,1.693,0,0,0,.461-1.928,1.633,1.633,0,0,0-1.495-1.009h-.418a7.5,7.5,0,0,1,0-15,1.675,1.675,0,0,0,1.654-1.062,1.692,1.692,0,0,0-.266-1.939,7.569,7.569,0,0,1-2.329-5.431,7.5,7.5,0,0,1,12.8-5.317,1.7,1.7,0,0,0,1.928.462,2.432,2.432,0,0,1,.5-.16,1.62,1.62,0,0,0,.711-1.337v-.415a7.5,7.5,0,0,1,15,0,1.719,1.719,0,0,0,.984,1.7,1.624,1.624,0,0,0,1.819-.314,7.564,7.564,0,0,1,5.43-2.329h0a7.446,7.446,0,0,1,5.283,2.178c.01.009.019.02.032.03a7.51,7.51,0,0,1,0,10.6,1.7,1.7,0,0,0-.461,1.929,2.347,2.347,0,0,1,.158.5,1.627,1.627,0,0,0,1.341.711h.412a7.5,7.5,0,0,1,0,15,1.717,1.717,0,0,0-1.7.984c0,.01-.008.017-.01.027a1.608,1.608,0,0,0,.322,1.787,7.556,7.556,0,0,1,.139,10.74,7.466,7.466,0,0,1-5.307,2.2h-.005a7.447,7.447,0,0,1-5.3-2.2,1.7,1.7,0,0,0-1.932-.459,1.641,1.641,0,0,0-1.005,1.5v.412A7.509,7.509,0,0,1,870.373,1060.749Zm-9.334-14.35a6.931,6.931,0,0,1,6.832,6.567c0,.02,0,.264,0,.283a2.5,2.5,0,0,0,5,0v-.425a6.658,6.658,0,0,1,11.3-4.738c.013.009.171.173.184.185a2.48,2.48,0,0,0,1.755.72h0a2.5,2.5,0,0,0,1.768-4.272,6.661,6.661,0,0,1,4.56-11.47,2.562,2.562,0,0,0,2.732-2.5,2.5,2.5,0,0,0-2.5-2.5h-.424a6.625,6.625,0,0,1-6.072-4.015,2.454,2.454,0,0,1-.181-.659,6.591,6.591,0,0,1,1.516-6.825,2.66,2.66,0,0,0,.9-1.939,2.5,2.5,0,0,0-.733-1.768l-.007-.005a2.482,2.482,0,0,0-1.765-.731h0a2.48,2.48,0,0,0-1.765.734,6.66,6.66,0,0,1-11.47-4.556,2.564,2.564,0,0,0-2.5-2.736,2.5,2.5,0,0,0-2.5,2.5v.425a6.618,6.618,0,0,1-4.016,6.073,2.553,2.553,0,0,1-.658.181,6.588,6.588,0,0,1-6.825-1.518,2.563,2.563,0,0,0-3.707-.169,2.5,2.5,0,0,0,0,3.539,6.678,6.678,0,0,1,1.5,7.479,6.525,6.525,0,0,1-6.006,4.188h-.282a2.5,2.5,0,0,0,0,5h.425a6.658,6.658,0,0,1,4.737,11.3,2.57,2.57,0,0,0-.169,3.709,2.5,2.5,0,0,0,3.539,0A6.893,6.893,0,0,1,861.039,1046.4Zm27.634-8.15h0Z" fill="#333"/>
  </g>
</svg>
