<svg xmlns="http://www.w3.org/2000/svg" width="90" height="90" viewBox="0 0 90 90">
  <g id="Group_30" data-name="Group 30" transform="translate(-545 -1227.2)">
    <circle id="Ellipse_9" data-name="Ellipse 9" cx="45" cy="45" r="45" transform="translate(545 1227.2)" fill="#fed136"/>
    <path id="Path_29" data-name="Path 29" d="M582.825,1294.241a22.491,22.491,0,1,1,21.211-29.988h1.3a14.994,14.994,0,1,1,0,29.988H582.825Zm.034-39.991a17.574,17.574,0,0,0-4.4.562,17.493,17.493,0,0,0,4.372,34.431h22.506a10,10,0,1,0,0-19.992h-3.148a2.5,2.5,0,0,1-2.418-1.874,17.513,17.513,0,0,0-16.909-13.127Z" fill="#333"/>
  </g>
</svg>
