<svg xmlns="http://www.w3.org/2000/svg" width="90" height="90" viewBox="0 0 90 90">
  <g id="Group_26" data-name="Group 26" transform="translate(-265 -1227.2)">
    <circle id="Ellipse_8" data-name="Ellipse 8" cx="45" cy="45" r="45" transform="translate(265 1227.2)" fill="#fed136"/>
    <path id="Path_32" data-name="Path 32" d="M310.172,1244.25c-12.041,0-25,3.13-25,10v35c0,6.87,12.959,10,25,10s25-3.13,25-10v-35C335.172,1247.38,322.213,1244.25,310.172,1244.25Zm20,27.5c0,1.164-6.235,5-20,5s-20-3.836-20-5v-11.191c4.873,2.5,12.6,3.691,20,3.691s15.128-1.187,20-3.691Zm-20-22.5c13.123,0,20,3.714,20,5s-6.877,5-20,5-20-3.715-20-5S297.049,1249.25,310.172,1249.25Zm0,45c-13.765,0-20-3.836-20-5v-11.191c4.873,2.5,12.6,3.691,20,3.691s15.128-1.187,20-3.691v11.191C330.172,1290.414,323.937,1294.25,310.172,1294.25Z" fill="#333"/>
  </g>
</svg>
