<svg xmlns="http://www.w3.org/2000/svg" width="36" height="36" viewBox="0 0 36 36">
  <g id="Group_19" data-name="Group 19" transform="translate(-928 -64.241)">
    <circle id="Ellipse_3" data-name="Ellipse 3" cx="18" cy="18" r="18" transform="translate(928 64.241)" fill="#333"/>
    <g id="Group_17" data-name="Group 17">
      <rect id="Rectangle_12" data-name="Rectangle 12" width="27" height="27" rx="3.6" transform="translate(932.503 68.741)" fill="#333"/>
    </g>
    <g id="Group_18" data-name="Group 18">
      <path id="Path_26" data-name="Path 26" d="M950.245,94.126a1,1,0,0,1-1-1v-3.87a2.432,2.432,0,0,0-.658-1.914,1,1,0,0,1,.607-1.69c2.883-.32,5.551-1.271,5.551-6.006a4.42,4.42,0,0,0-1.225-3.061,1,1,0,0,1-.212-1.039,4.044,4.044,0,0,0,.139-2.4,8.3,8.3,0,0,0-2.645,1.288,1.006,1.006,0,0,1-.819.135,12.361,12.361,0,0,0-6.476,0,1,1,0,0,1-.819-.135,8.085,8.085,0,0,0-2.647-1.281,4.046,4.046,0,0,0,.141,2.39,1,1,0,0,1-.212,1.039,4.421,4.421,0,0,0-1.225,3.086c0,4.678,2.674,5.655,5.563,6.013a1,1,0,0,1,.6,1.688,2.372,2.372,0,0,0-.66,1.814v.875a.943.943,0,0,1,0,.13l0,2.935a1,1,0,0,1-2,0V91.379a4.938,4.938,0,0,1-5.174-2.277c-.389-.493-.725-.92-1.069-1.006a1,1,0,1,1,.486-1.939,4.118,4.118,0,0,1,2.154,1.708c.836,1.062,1.514,1.921,3.6,1.487v-.1a4.177,4.177,0,0,1,.3-1.847c-2.818-.643-5.8-2.369-5.8-7.733a6.4,6.4,0,0,1,1.378-4.011,6.042,6.042,0,0,1,.293-3.933,1,1,0,0,1,.635-.564c.364-.109,1.727-.313,4.373,1.361a14.4,14.4,0,0,1,6.642,0c2.645-1.674,4.007-1.47,4.373-1.361a1,1,0,0,1,.635.564,6.042,6.042,0,0,1,.293,3.933,6.4,6.4,0,0,1,1.378,3.981c0,5.676-3.449,7.247-5.789,7.757a4.36,4.36,0,0,1,.286,1.932l0,3.791A1,1,0,0,1,950.245,94.126Z" fill="#fff"/>
    </g>
  </g>
</svg>
