<svg xmlns="http://www.w3.org/2000/svg" width="60" height="60" viewBox="0 0 60 60">
  <g id="Group_32" data-name="Group 32" transform="translate(-280 -1001.2)">
    <rect id="Rectangle_16" data-name="Rectangle 16" width="60" height="60" transform="translate(280 1001.2)" fill="none"/>
    <path id="Path_30" data-name="Path 30" d="M320,1048.7a2.5,2.5,0,0,1-1.768-4.268l13.233-13.232-13.233-13.233a2.5,2.5,0,1,1,3.536-3.535l15,15a2.5,2.5,0,0,1,0,3.535l-15,15A2.491,2.491,0,0,1,320,1048.7Zm-18.232-.733a2.5,2.5,0,0,0,0-3.535L288.535,1031.2l13.233-13.233a2.5,2.5,0,0,0-3.536-3.535l-15,15a2.5,2.5,0,0,0,0,3.535l15,15a2.5,2.5,0,0,0,3.536,0Z" fill="#333"/>
  </g>
</svg>
