<svg xmlns="http://www.w3.org/2000/svg" width="36" height="36" viewBox="0 0 36 36">
  <g id="Group_14" data-name="Group 14" transform="translate(-880 -64.241)">
    <circle id="Ellipse_1" data-name="Ellipse 1" cx="18" cy="18" r="18" transform="translate(880 64.241)" fill="#333"/>
    <g id="Group_13" data-name="Group 13">
      <rect id="Rectangle_9" data-name="Rectangle 9" width="27" height="27" rx="3.6" transform="translate(884.5 68.741)" fill="#333"/>
      <g id="Group_12" data-name="Group 12">
        <rect id="Rectangle_10" data-name="Rectangle 10" width="3.64" height="11.701" transform="translate(889.511 79.298)" fill="#fff"/>
        <path id="Path_23" data-name="Path 23" d="M891.332,77.7a2.109,2.109,0,1,1,2.107-2.11A2.108,2.108,0,0,1,891.332,77.7Z" fill="#fff" fill-rule="evenodd"/>
        <path id="Path_24" data-name="Path 24" d="M906.772,91h-3.636V85.309c0-1.357-.024-3.1-1.89-3.1-1.893,0-2.181,1.479-2.181,3V91h-3.633V79.3h3.486v1.6h.05a3.821,3.821,0,0,1,3.442-1.89c3.681,0,4.362,2.423,4.362,5.574Z" fill="#fff" fill-rule="evenodd"/>
      </g>
    </g>
  </g>
</svg>
