<svg xmlns="http://www.w3.org/2000/svg" width="90" height="90" viewBox="0 0 90 90">
  <g id="Group_24" data-name="Group 24" transform="translate(-545 -986.2)">
    <circle id="Ellipse_6" data-name="Ellipse 6" cx="45" cy="45" r="45" transform="translate(545 986.2)" fill="#fed136"/>
    <path id="Path_28" data-name="Path 28" d="M602.5,1058.7h-25a7.509,7.509,0,0,1-7.5-7.5v-40a7.508,7.508,0,0,1,7.5-7.5h25a7.508,7.508,0,0,1,7.5,7.5v40A7.509,7.509,0,0,1,602.5,1058.7Zm-25-50a2.5,2.5,0,0,0-2.5,2.5v40a2.5,2.5,0,0,0,2.5,2.5h25a2.5,2.5,0,0,0,2.5-2.5v-40a2.5,2.5,0,0,0-2.5-2.5Zm14.275,39.267a2.478,2.478,0,0,0,.725-1.775,2.526,2.526,0,0,0-.725-1.75,2.567,2.567,0,0,0-3.55,0,2.522,2.522,0,0,0-.725,1.75,2.51,2.51,0,0,0,4.275,1.775Z" fill="#333"/>
  </g>
</svg>
