<svg xmlns="http://www.w3.org/2000/svg" width="36" height="36" viewBox="0 0 36 36">
  <g id="Group_16" data-name="Group 16" transform="translate(-976 -64.241)">
    <circle id="Ellipse_2" data-name="Ellipse 2" cx="18" cy="18" r="18" transform="translate(976 64.241)" fill="#333"/>
    <g id="Group_15" data-name="Group 15">
      <rect id="Rectangle_11" data-name="Rectangle 11" width="27" height="27" rx="3.6" transform="translate(980.5 68.741)" fill="#333"/>
      <path id="Path_25" data-name="Path 25" d="M1002.052,78.111c.009.178.012.358.012.537A11.816,11.816,0,0,1,983.875,88.6a8.535,8.535,0,0,0,.991.058,8.332,8.332,0,0,0,5.16-1.779A4.159,4.159,0,0,1,986.145,84a4.132,4.132,0,0,0,1.876-.072,4.156,4.156,0,0,1-3.333-4.073c0-.018,0-.035,0-.053a4.118,4.118,0,0,0,1.882.52,4.159,4.159,0,0,1-1.287-5.546,11.793,11.793,0,0,0,8.564,4.34,4.157,4.157,0,0,1,7.08-3.788,8.342,8.342,0,0,0,2.638-1.009,4.169,4.169,0,0,1-1.827,2.3,8.276,8.276,0,0,0,2.386-.654A8.429,8.429,0,0,1,1002.052,78.111Z" fill="#fff" fill-rule="evenodd"/>
    </g>
  </g>
</svg>
